<svg version="1" xmlns="http://www.w3.org/2000/svg" width="413.333" height="413.333" viewBox="0 0 310.000000 310.000000"><path d="M105.5 1.4c-9.6 1.5-10.8 1.9-21 5.9C63.3 15.5 48.6 30.2 41 50.5c-4.1 11-5.4 20.4-4.7 34.8.8 19 5.7 32.3 17.1 46.5 7.5 9.4 21.5 19 32.6 22.3 4.1 1.3 2.5 1.4-20.8 1.9l-25.3.5v41.8c0 23 .3 42.2.7 42.8.3.6 6.3.9 15 .8l14.5-.1-.1 34.1c-.1 38.8-.4 37.4 8.1 30.3 2.5-2 8.4-6.5 13-9.8 4.6-3.4 10.4-7.7 12.9-9.6 2.5-1.9 16.9-12.8 32.1-24.1l27.6-20.6 12.4-.2c12.2-.1 32.4-2.5 40.6-4.8 2.4-.6 7.2-2.5 10.7-4.1 21-9.4 35.4-24.7 42.7-45.6 2.8-7.9 3.2-10.4 3.7-23 .6-18.9-1.6-31.1-8.1-43.9-6.4-12.8-19.8-25.2-34.9-32.4-2.7-1.3-4.8-2.4-4.8-2.4 0-.1 7.4-.1 16.5.1l16.5.3V0l-72.7.1c-52.8.1-75 .4-80.8 1.3zM230 43v16h-55.3c-62.2 0-62.5 0-68.8 6.7-5.9 6.2-7.7 13.7-5.5 22.4 1.6 6 5.4 10.4 11.6 13.3 4.2 1.9 6.7 2.1 43 2.7 21.2.4 39.4.9 40.5 1.2 1.1.3 5.4 1.3 9.5 2.3 20.7 4.7 34.7 17.8 38.6 36.3 1.8 8.5 1.8 22.7 0 31.2-4 18.7-17.3 31.2-39.1 36.9-7 1.8-10.8 2.1-29.8 2h-21.8l-11.2 10.7c-27.7 26.8-38.1 37-40.1 39.1l-2.1 2.4-.5-25.9-.5-25.8-15.3.2-15.2.3.2-16.3.3-16.2 62.5-.5c68.7-.5 66.6-.4 73.2-6.7 3.1-2.9 6.8-11.8 6.8-16.2 0-4.4-2.8-12.4-5.4-15.2-7.4-8.4-11.5-9.2-53.1-9.6-41.1-.4-48.7-1.3-61-7.3-17.9-8.7-26.4-23.4-26.5-46.1-.1-23.5 8.2-38.2 26.5-47 13.8-6.6 15.1-6.7 80.3-6.8L230 27v16z"/></svg>